<svg width="25" height="25" viewBox="0 0 25 25" fill="none" xmlns="http://www.w3.org/2000/svg">
<g clip-path="url(#clip0_2001_582)">
<path d="M24.1124 12.2534C24.1124 14.6116 23.4131 16.9169 22.1029 18.8777C20.7928 20.8385 18.9306 22.3667 16.7519 23.2691C14.5732 24.1716 12.1758 24.4077 9.86286 23.9477C7.54997 23.4876 5.42542 22.352 3.75791 20.6845C2.09039 19.017 0.954802 16.8924 0.494735 14.5796C0.0346685 12.2666 0.270791 9.86928 1.17324 7.69052C2.0757 5.5118 3.60395 3.64962 5.56474 2.33947C7.52552 1.02931 9.83082 0.330017 12.189 0.330017C13.7548 0.330017 15.3053 0.638424 16.7519 1.23763C18.1985 1.83684 19.5129 2.71511 20.6201 3.82229C21.7273 4.92949 22.6056 6.24391 23.2048 7.69052C23.804 9.13713 24.1124 10.6876 24.1124 12.2534ZM8.75523 15.6616C8.53598 15.4423 8.25663 15.2929 7.95249 15.2324C7.64836 15.1719 7.33311 15.2029 7.0466 15.3215C6.7601 15.4402 6.51522 15.6412 6.34293 15.899C6.17064 16.1568 6.07868 16.46 6.07868 16.77C6.07868 17.0802 6.17064 17.3833 6.34293 17.6411C6.51522 17.8989 6.7601 18.0999 7.0466 18.2185C7.33311 18.3372 7.64836 18.3682 7.95249 18.3077C8.25663 18.2471 8.53598 18.0978 8.75523 17.8784C8.90094 17.733 9.01655 17.5603 9.09542 17.37C9.1743 17.1799 9.2149 16.976 9.2149 16.77C9.2149 16.5642 9.1743 16.3603 9.09542 16.17C9.01655 15.9799 8.90094 15.8071 8.75523 15.6616ZM19.5039 17.1451C19.505 15.5397 19.1898 13.9499 18.576 12.4666C17.9622 10.9833 17.062 9.63556 15.9269 8.50043C14.7918 7.36531 13.444 6.46513 11.9607 5.85136C10.4773 5.23758 8.88761 4.92228 7.28231 4.92346C6.9735 4.93444 6.68099 5.06484 6.4664 5.28719C6.25182 5.50954 6.1319 5.80649 6.1319 6.1155C6.1319 6.42451 6.25182 6.72146 6.4664 6.94381C6.68099 7.16616 6.9735 7.29656 7.28231 7.30754C8.57483 7.30595 9.85501 7.55936 11.0494 8.05326C12.2438 8.54716 13.3291 9.27183 14.243 10.1858C15.1571 11.0997 15.8817 12.185 16.3756 13.3795C16.8695 14.5739 17.1229 15.854 17.1213 17.1465C17.1214 17.303 17.1523 17.4579 17.2123 17.6024C17.2722 17.7469 17.3601 17.8782 17.4708 17.9887C17.5814 18.0992 17.7129 18.1869 17.8574 18.2467C18.002 18.3065 18.1569 18.3372 18.3133 18.3371C18.4698 18.3369 18.6247 18.3061 18.7692 18.2461C18.9137 18.1861 19.045 18.0983 19.1555 17.9876C19.2661 17.877 19.3537 17.7455 19.4135 17.601C19.4733 17.4564 19.504 17.3015 19.5039 17.1451ZM14.4315 17.1451C14.4315 15.2492 13.6785 13.431 12.3381 12.0903C10.9977 10.7496 9.17964 9.9962 7.28382 9.99583C6.975 10.0068 6.6825 10.1372 6.46791 10.3595C6.25332 10.5819 6.1334 10.8788 6.1334 11.1879C6.1334 11.4968 6.25332 11.7938 6.46791 12.0162C6.6825 12.2385 6.975 12.369 7.28382 12.3799C8.5474 12.3819 9.75864 12.8847 10.6522 13.7782C11.5456 14.6717 12.0484 15.8829 12.0505 17.1465C12.0505 17.303 12.0815 17.4579 12.1415 17.6024C12.2014 17.7469 12.2893 17.8782 12.3999 17.9887C12.5106 18.0992 12.642 18.1869 12.7865 18.2467C12.9312 18.3065 13.0861 18.3372 13.2425 18.3371C13.399 18.3369 13.5539 18.3061 13.6983 18.2461C13.8428 18.1861 13.9741 18.0983 14.0846 17.9876C14.1952 17.877 14.2828 17.7455 14.3426 17.601C14.4024 17.4564 14.4316 17.3015 14.4315 17.1451Z" fill="white"/>
</g>
<defs>
<clipPath id="clip0_2001_582">
<rect width="24" height="24" fill="white" transform="translate(0.265625 0.330017)"/>
</clipPath>
</defs>
</svg>
